<svg version="1.2" xmlns="http://www.w3.org/2000/svg" viewBox="15 5 240 245" width="1000" height="1021">
  <defs>
    <style>
      @font-face {
        font-family: 'Goldman Sans';
        src: url('../fonts/GoldmanSans_A_Blk.ttf') format('truetype');
        font-weight: 900;
        font-style: normal;
      }
      .s0 { fill: #1a1816 }
      .s2 { fill: #9768f8 }
      .s3 { fill: #fb396a }
      .s4 { fill: #8ec56f }
      .s5 { fill: #fdd63b }
      .wordmark {
        font-family: 'Goldman Sans', system-ui, -apple-system, sans-serif;
        font-weight: 900;
        font-size: 40px;
        fill: #1a1816;
        letter-spacing: 4px;
      }
    </style>
  </defs>
  <g id="Icon">
    <path id="Body" fill-rule="evenodd" class="s0" d="m199.6 139.68c-0.68 0.17-0.71-1.01-0.61-21.1 0 0-0.45-73.72-0.28-73.72 0.16 0 2.38-0.4 6.52-1.16 4.15-0.77 10.69-1.54 10.15-7.37-0.29-3.23-2.32-4.69-5.17-7.03-2.39-1.96-6.47-5.36-9.07-7.55-2.6-2.19-5.74-4.49-6.98-5.1-1.75-0.87-2.91-1.13-5.29-1.2-1.69-0.05-3.24-0.01-3.47 0.09-0.22 0.1-9.09 1.43-25.9 4.25-16.81 2.82-28.45 4.24-39.88 6.15-11.44 1.91-22.35 3.84-24.25 4.29-1.91 0.45-5.12 1.52-7.14 2.38-2.01 0.86-4.67 2.16-5.9 2.88-1.24 0.72-3.44 2.15-4.9 3.18-1.45 1.04-4.21 3.45-6.13 5.36-1.92 1.92-4.7 5.32-6.19 7.56-1.49 2.25-3.33 5.46-4.1 7.14-0.77 1.68-1.88 4.57-2.47 6.42-0.59 1.85-1.35 5.06-1.68 7.13-0.51 3.15-0.61 9.89-0.61 40.88 0 31.77 0.09 37.71 0.65 41.38 0.35 2.35 1.15 5.84 1.78 7.74 0.62 1.91 1.81 4.85 2.65 6.53 0.84 1.68 2.5 4.52 3.69 6.32 1.19 1.79 3.79 4.91 5.78 6.93 2 2.01 5.27 4.79 7.27 6.16 2 1.38 5.29 3.33 7.31 4.34 2.02 1.02 5.32 2.33 7.34 2.92 2.02 0.59 5.32 1.34 7.33 1.67 2.02 0.33 5.51 0.6 7.75 0.59 2.24 0 5.72-0.26 7.74-0.58 2.02-0.32 6.88-1.4 10.8-2.41 3.92-1 9.61-2.47 12.64-3.26 3.02-0.8 8.34-2.17 11.81-3.06 3.48-0.89 12.37-3.2 19.77-5.13 7.4-1.94 32.94-10.05 33.83-10.36 0.9-0.32 2.37-1.15 3.27-1.85 0.89-0.71 2.22-2.14 2.95-3.18 0.73-1.05 1.61-3 1.96-4.35 0.53-1.98 0.72-4.31 0.52-12.3-0.11-4.71 0.53-9.91-2.78-12.02-2.87-1.83-10.32 0.34-10.71 0.44z"/>
    <path id="Purple" fill-rule="evenodd" class="s2" d="m177.82 27.31c-5.6 0.97-11.75 1.72-30.69 4.88-18.94 3.17-37.56 6.31-41.37 6.97-3.81 0.67-7.94 1.5-9.17 1.86-1.23 0.37-4.08 1.55-6.32 2.63-2.24 1.09-5.36 2.97-6.93 4.18-1.56 1.21-4.22 3.76-5.91 5.67-1.68 1.92-3.65 4.47-4.37 5.68-0.73 1.21-1.96 3.67-2.74 5.46-0.78 1.79-1.74 4.73-2.14 6.52-0.67 3.01-0.73 6.36-0.73 43.02v39.75c2.13 6.32 3.3 9.25 3.97 10.6 0.68 1.34 2.17 3.8 3.32 5.46 1.14 1.66 3.46 4.3 5.14 5.86 1.68 1.56 4.52 3.74 6.32 4.84 1.79 1.09 4.63 2.56 6.31 3.26 1.69 0.69 4.44 1.61 6.12 2.03 1.68 0.43 4.98 0.88 7.33 1.01 3.72 0.2 5.05 0.08 10.19-0.97 3.25-0.66 82.81-21.92 84.38-22.37 1.77-0.51 3.13-1.18 3.58-1.75 0.63-0.8 0.73-1.75 0.71-6.94-0.01-5.52-0.07-5.99-0.73-5.83-0.39 0.1-9.61 2.37-20.48 5.05-10.87 2.67-59.27 14.9-62.47 15.67-3.19 0.77-7.13 1.52-8.76 1.66-1.65 0.14-4.3 0.04-6.01-0.23-1.68-0.26-4.43-1.04-6.11-1.72-1.68-0.68-4.07-1.93-5.3-2.77-1.23-0.84-3.22-2.61-4.41-3.93-1.2-1.33-2.61-3.14-3.15-4.04-0.53-0.9-1.55-3.19-2.25-5.1l-1.29-3.46 0.16-77.06c1.57-4.11 2.61-6.39 3.32-7.72 0.72-1.33 2.68-3.87 4.36-5.65 1.68-1.78 4.06-3.84 5.3-4.59 1.23-0.75 3.71-1.9 5.5-2.56 1.79-0.66 5.09-1.58 7.34-2.04 2.24-0.45 8.47-1.66 13.85-2.68 5.38-1.01 16.2-3.05 24.05-4.52 7.84-1.48 18.48-3.49 23.64-4.48 5.15-1 1.95-0.37 9.91-1.83 7.95-1.46 15.52-2.89 16.82-3.18 1.59-0.35 2.35-0.72 2.35-1.13-0.01-0.34-1.8-2.13-3.99-3.99-3.97-3.36-3.98-3.37-6.22-3.32-1.23 0.02-6.82 0.83-12.43 1.8z"/>
    <path id="Pink" fill-rule="evenodd" class="s3" d="m114.32 60.59c-2.92 0.53-6.31 1.35-7.54 1.81-1.23 0.47-3.16 1.45-4.28 2.19-1.12 0.73-2.71 2.14-3.53 3.14-0.82 0.99-1.96 2.72-2.53 3.84-0.56 1.12-1.23 2.96-1.47 4.08-0.3 1.4-0.4 13.31-0.33 37.91l0.12 35.88c2.05 3.95 3.33 5.79 4.18 6.63 0.84 0.84 2.72 2.15 4.18 2.9 1.89 0.99 3.45 1.47 5.49 1.68 2.14 0.21 3.73 0.1 6.32-0.46 1.9-0.41 5.57-1.26 8.15-1.88l4.69-1.14 0.2-42.59c-4.46 0.5-4.8 0.42-5.91-0.52l-1.22-1.04c-0.2-47.59-0.33-53.47-0.72-53.44-0.28 0.02-2.89 0.48-5.8 1.01z"/>
    <path id="Green" fill-rule="evenodd" class="s4" d="m181.52 47.96c-2.44 0.48-5.13 0.99-5.97 1.14l-1.53 0.25c0 48.91-0.05 51.08-0.71 52.45-0.39 0.81-1.08 1.67-1.53 1.91-0.45 0.23-1.73 0.63-2.85 0.89l-2.04 0.46c-0.16 32.97-0.06 42.54 0.1 42.53 0.17 0 6.09-1.45 13.15-3.2l12.84-3.2 0.2-42.51c-0.87-38.11-0.87-52.42-0.87-52.42 0 0-8.35 1.22-10.79 1.7z"/>
    <path id="Yellow" fill-rule="evenodd" class="s5" d="m147.94 54.47c-2.8 0.53-5.51 1.07-6.01 1.19l-0.92 0.22c0 52.47-0.02 53.24-0.81 54.52q-0.82 1.33-2.55 1.91c-0.95 0.32-2.24 0.69-2.85 0.82l-1.12 0.23c0.36 32.39 0.5 41.84 0.54 41.89 0.04 0.06 5.75-1.27 12.7-2.95 6.95-1.68 12.96-3.06 13.35-3.06 0.67 0 0.71-1.29 0.7-21.3l-0.01-21.31c-2.99 0.65-3.79 0.6-4.79 0.17-0.82-0.35-1.57-1.09-1.93-1.9-0.5-1.11-0.59-5.39-0.59-26.4 0-13.79-0.14-25.05-0.31-25.03-0.17 0.02-2.6 0.47-5.4 1z"/>
  </g>
  <text x="135" y="240" text-anchor="middle" class="wordmark">CHORDA</text>
</svg>